<?xml version="1.0" standalone="no"?>
<!DOCTYPE svg PUBLIC "-//W3C//DTD SVG 20010904//EN"
 "http://www.w3.org/TR/2001/REC-SVG-20010904/DTD/svg10.dtd">
<svg version="1.0" xmlns="http://www.w3.org/2000/svg"
 width="1200.000000pt" height="1200.000000pt" viewBox="0 0 1200.000000 1200.000000"
 preserveAspectRatio="xMidYMid meet">
<metadata>
Created by potrace 1.11, written by Peter Selinger 2001-2013
</metadata>
<g transform="translate(0.000000,1200.000000) scale(0.100000,-0.100000)"
fill="#000000" stroke="none">
<path d="M5715 11031 c-168 -7 -232 -14 -395 -45 -107 -21 -238 -48 -290 -62
-52 -14 -187 -47 -300 -73 -419 -99 -816 -213 -915 -263 -122 -62 -290 -186
-382 -281 -102 -107 -244 -282 -381 -470 -53 -73 -130 -175 -172 -227 -113
-140 -335 -423 -404 -515 -32 -44 -77 -99 -98 -123 -67 -74 -155 -219 -267
-442 -136 -268 -204 -449 -241 -635 -16 -77 -37 -176 -48 -220 -11 -44 -32
-138 -46 -210 -26 -130 -45 -199 -110 -395 -36 -110 -100 -369 -137 -555 -14
-74 -23 -172 -28 -300 -6 -151 -11 -199 -26 -234 -18 -43 -18 -44 1 -58 33
-24 86 -31 324 -43 129 -7 242 -16 251 -21 26 -13 321 6 529 36 188 26 408 35
780 31 384 -4 433 -8 710 -66 244 -51 245 -51 1103 -56 l811 -5 42 -24 c24
-14 49 -25 57 -25 8 0 34 -9 58 -19 24 -11 71 -22 104 -26 33 -3 98 -11 145
-17 60 -7 146 -7 290 1 146 7 232 7 300 0 149 -17 277 -18 380 -3 72 11 271
15 835 19 407 2 751 3 765 3 57 -3 363 2 471 7 97 5 118 4 128 -9 11 -13 29
-15 105 -9 50 3 97 10 104 16 7 5 31 12 55 14 59 7 92 29 142 96 31 40 46 72
51 104 9 63 -3 227 -27 353 -23 123 -94 535 -115 665 -10 62 -15 175 -15 360
-1 339 -24 800 -50 970 -24 160 -99 536 -134 669 -35 134 -121 383 -190 552
-125 304 -404 717 -591 876 -245 209 -362 267 -674 337 -81 17 -198 54 -290
89 -161 62 -265 92 -385 111 -408 63 -509 74 -785 86 -80 4 -201 13 -270 21
-159 18 -516 25 -775 15z m412 -297 c82 -35 87 -39 105 -89 10 -28 21 -80 24
-116 8 -81 -9 -122 -77 -191 -54 -54 -99 -67 -169 -49 -90 23 -131 76 -133
169 -2 105 18 158 87 229 69 70 93 77 163 47z m-646 -19 c55 -19 96 -56 120
-109 24 -52 24 -99 0 -167 -32 -91 -42 -108 -99 -151 -63 -47 -120 -62 -197
-50 -48 7 -50 9 -80 66 -42 83 -42 171 0 275 32 78 63 108 142 137 49 17 61
17 114 -1z m1278 -63 c40 -21 111 -131 111 -173 0 -16 -21 -58 -51 -103 -40
-60 -61 -82 -100 -101 -57 -29 -77 -30 -149 -9 -65 19 -105 57 -120 114 -10
38 -9 51 11 104 26 72 78 157 111 181 29 21 135 13 187 -13z m611 13 c16 -8
42 -32 57 -52 24 -31 28 -47 32 -116 5 -117 -7 -145 -86 -209 -87 -69 -102
-77 -137 -78 -41 0 -112 36 -136 69 -10 16 -25 48 -31 73 -14 50 -12 54 68
185 51 85 78 110 134 127 58 19 65 19 99 1z m-2513 -106 c83 -31 139 -152 114
-246 -15 -55 -85 -156 -129 -187 -42 -29 -117 -48 -152 -39 -63 15 -133 134
-126 212 4 42 64 154 115 214 43 51 115 70 178 46z m2976 -32 c44 -19 104 -88
116 -134 13 -52 6 -129 -16 -161 -9 -15 -25 -43 -35 -63 -22 -44 -82 -79 -134
-79 -91 0 -194 79 -194 147 0 64 38 169 81 223 59 74 114 95 182 67z m-3567
-163 c18 -9 50 -34 70 -56 l36 -41 -5 -81 c-4 -72 -10 -92 -52 -174 -39 -77
-53 -96 -86 -112 -49 -25 -121 -25 -177 0 -37 17 -47 29 -73 85 l-31 65 31 93
c33 99 61 134 160 205 50 36 78 39 127 16z m4128 -137 c26 -28 50 -68 66 -112
27 -75 27 -75 -2 -154 -30 -79 -79 -127 -160 -156 -80 -29 -97 -25 -145 38
-61 82 -64 157 -9 281 46 104 93 146 165 146 39 0 49 -5 85 -43z m-2954 -127
c72 -36 88 -55 100 -119 12 -64 2 -88 -67 -152 -69 -65 -136 -101 -182 -101
-57 1 -117 19 -147 45 -51 44 -42 185 16 266 23 31 44 45 107 70 85 33 90 32
173 -9z m624 24 c26 -9 63 -32 82 -51 29 -28 34 -41 34 -80 0 -85 -52 -138
-166 -167 -116 -30 -167 -19 -213 45 -57 78 -51 157 18 229 l38 40 80 0 c47 0
99 -7 127 -16z m580 -88 c61 -40 78 -68 91 -142 6 -37 3 -46 -25 -77 -64 -74
-213 -101 -284 -52 -83 56 -116 119 -95 183 30 93 93 135 195 129 51 -2 70 -9
118 -41z m-2952 -16 c52 -23 64 -35 106 -111 29 -54 31 -61 28 -157 -3 -92 -5
-104 -30 -137 -15 -20 -46 -48 -69 -63 -35 -23 -51 -27 -109 -26 -81 1 -100
14 -124 88 -55 164 28 421 137 425 9 1 36 -8 61 -19z m3628 -63 c80 -69 101
-117 80 -184 -23 -69 -45 -91 -118 -112 -123 -37 -144 -39 -198 -24 -86 26
-113 41 -141 84 -37 57 -37 106 2 184 34 67 61 90 136 115 l53 18 80 -30 c45
-16 92 -39 106 -51z m1459 43 c10 -5 40 -42 67 -81 49 -71 49 -72 47 -146 -2
-70 -5 -81 -45 -147 -48 -77 -96 -113 -163 -121 -76 -10 -176 65 -191 141 -11
60 3 135 39 214 41 89 65 113 132 133 61 18 91 20 114 7z m-3884 -110 c70 -48
93 -123 60 -194 -27 -57 -222 -166 -296 -166 -72 0 -179 111 -181 189 -2 70
80 153 169 171 32 6 74 17 93 25 50 20 101 12 155 -25z m2920 -121 c57 -27
151 -127 166 -178 26 -89 -21 -164 -123 -196 l-57 -18 -67 28 c-115 49 -161
145 -128 267 22 81 31 97 57 108 39 15 106 11 152 -11z m-3547 -166 c48 -36
89 -97 97 -143 9 -50 -25 -112 -88 -164 -115 -94 -247 -101 -310 -15 -65 89
36 284 174 337 60 23 79 21 127 -15z m1850 -5 c85 -26 147 -132 118 -202 -23
-56 -91 -103 -176 -121 -41 -9 -84 -19 -95 -22 -32 -7 -130 42 -156 79 -29 41
-32 126 -6 176 45 85 193 127 315 90z m-2762 -113 c56 -46 64 -67 64 -158 0
-83 -18 -129 -74 -196 -63 -75 -103 -101 -155 -101 -57 0 -85 18 -112 73 -38
74 -39 90 -13 188 28 105 34 119 82 178 64 79 125 84 208 16z m3501 -11 c95
-46 138 -122 113 -198 -18 -55 -177 -186 -225 -186 -11 0 -49 9 -82 21 -100
33 -175 134 -156 208 16 65 70 134 128 163 80 41 123 40 222 -8z m-1352 -24
c48 -46 62 -95 45 -156 -11 -39 -23 -53 -73 -90 -32 -24 -64 -44 -70 -44 -7 0
-35 -10 -63 -21 -69 -29 -112 -20 -170 33 -74 68 -73 148 2 228 69 74 112 92
211 88 78 -3 84 -5 118 -38z m3606 17 c43 -29 69 -69 93 -139 19 -54 19 -58 2
-102 -24 -63 -63 -99 -136 -126 -53 -20 -66 -21 -100 -11 -50 15 -99 56 -116
98 -8 18 -14 61 -14 97 0 61 2 67 46 120 25 31 57 62 72 71 42 22 113 19 153
-8z m-844 -36 c155 -74 221 -195 162 -300 -23 -42 -35 -50 -117 -80 -62 -23
-93 -19 -145 16 -68 47 -102 94 -121 167 -16 65 -16 68 3 109 24 52 51 83 88
102 40 21 60 19 130 -14z m-817 -132 c25 -12 64 -60 125 -149 49 -73 56 -89
51 -118 -11 -73 -86 -147 -160 -159 -64 -10 -180 67 -246 162 -26 38 -30 53
-30 110 0 108 37 152 139 165 56 7 93 4 121 -11z m-3636 -103 c40 -17 93 -79
107 -127 24 -78 -46 -211 -128 -246 -40 -16 -120 -17 -153 0 -30 15 -66 68
-82 119 -17 56 3 109 65 176 86 91 124 106 191 78z m962 -47 c36 -22 77 -84
88 -132 16 -69 -71 -170 -193 -224 -70 -31 -104 -25 -166 29 -73 65 -94 140
-59 213 16 34 120 111 179 133 41 15 110 7 151 -19z m-1836 -220 c56 -13 96
-50 105 -97 14 -68 6 -213 -14 -256 -19 -44 -113 -166 -138 -180 -24 -13 -134
-1 -178 20 -35 17 -42 26 -59 79 -41 130 17 334 116 404 25 17 86 40 108 40 8
0 35 -4 60 -10z m3516 -15 c19 -9 51 -36 70 -60 47 -57 53 -104 22 -164 -39
-76 -123 -103 -256 -80 -77 13 -126 42 -159 95 -29 48 -32 61 -19 87 7 13 16
36 20 51 8 35 64 76 117 86 61 12 164 5 205 -15z m2258 -10 c18 -12 47 -59 83
-134 47 -99 54 -121 50 -158 -11 -102 -138 -152 -256 -102 -59 26 -121 104
-133 169 -9 52 3 135 27 182 34 64 163 89 229 43z m603 -15 c8 -7 28 -42 46
-78 24 -52 32 -83 35 -144 5 -94 -4 -120 -66 -179 -50 -48 -93 -68 -148 -68
-26 0 -39 8 -67 43 -71 87 -91 152 -76 252 17 119 41 155 120 181 49 15 133
12 156 -7z m-3553 -42 c30 -20 43 -48 57 -121 10 -56 -10 -114 -54 -155 -49
-45 -242 -76 -302 -49 -38 17 -89 105 -89 153 0 48 45 145 76 164 50 31 267
37 312 8z m2136 -57 c55 -28 72 -54 92 -143 32 -141 33 -167 6 -206 -39 -58
-72 -76 -136 -75 -31 0 -74 8 -95 17 -32 15 -43 29 -78 105 -38 81 -40 92 -37
160 3 67 6 74 39 108 63 63 130 74 209 34z m-865 -34 c40 -25 89 -66 114 -96
39 -49 42 -57 37 -93 -10 -63 -43 -117 -81 -133 -81 -34 -179 -7 -255 69 -88
87 -91 165 -11 248 63 65 97 66 196 5z m-3580 -50 c43 -19 62 -55 70 -141 8
-78 -5 -143 -36 -187 -30 -41 -140 -92 -185 -85 -85 14 -151 107 -141 198 7
54 81 180 119 200 54 29 124 35 173 15z m763 -31 c44 -37 92 -114 92 -147 0
-16 -10 -48 -21 -71 -26 -50 -120 -144 -171 -171 -33 -18 -41 -18 -93 -6 -135
32 -161 149 -66 289 69 100 111 129 188 130 30 1 49 -6 71 -24z m906 -116 c28
-22 59 -75 69 -120 13 -51 -18 -120 -80 -181 -69 -68 -112 -88 -191 -88 -77 0
-135 38 -152 99 -15 57 19 157 74 217 72 79 223 118 280 73z m-2494 -271 c50
-35 93 -118 93 -181 0 -106 -96 -253 -180 -276 -90 -25 -157 -5 -200 60 -45
68 -35 171 29 304 31 65 36 71 88 92 72 29 128 29 170 1z m6271 -13 c44 -32
69 -70 69 -110 0 -14 10 -54 21 -88 42 -121 12 -204 -89 -248 -57 -25 -86 -24
-149 5 -40 19 -54 31 -59 53 -4 15 -13 53 -20 83 -17 65 -18 203 -3 233 6 12
30 41 53 65 39 42 43 43 88 39 31 -2 62 -14 89 -32z m-3005 -11 c37 -25 84
-112 84 -157 0 -21 -9 -56 -21 -78 -16 -33 -33 -46 -92 -75 -65 -31 -80 -34
-160 -34 -49 0 -97 5 -108 11 -22 11 -69 109 -69 143 0 39 22 98 44 121 12 12
41 25 65 29 23 3 62 16 84 28 82 42 123 44 173 12z m1559 7 c47 -21 115 -92
144 -150 12 -23 21 -59 21 -85 0 -38 -5 -50 -32 -75 -43 -41 -111 -65 -183
-65 -73 -1 -99 16 -145 92 -44 74 -48 109 -17 174 29 62 58 95 101 114 42 18
64 17 111 -5z m-952 -2 c70 -10 77 -14 109 -53 19 -22 40 -51 47 -64 43 -80
-26 -213 -125 -241 -38 -11 -183 25 -236 57 -46 28 -73 83 -73 147 0 76 18
107 78 138 58 29 93 32 200 16z m1757 -4 c36 -19 73 -88 89 -167 14 -64 0
-130 -39 -193 -26 -42 -91 -95 -117 -95 -30 0 -123 61 -157 103 -56 70 -45
196 27 301 39 56 138 82 197 51z m1147 -26 c35 -13 90 -64 110 -103 32 -61 -4
-150 -92 -229 -44 -39 -57 -45 -113 -52 l-63 -7 -40 43 c-63 68 -73 93 -59
147 22 88 78 163 145 193 46 21 72 23 112 8z m-4767 -127 c39 -28 70 -98 70
-158 0 -76 -24 -132 -82 -191 -46 -47 -56 -52 -107 -58 -78 -8 -139 11 -168
54 -26 38 -31 126 -12 195 13 49 76 111 154 154 66 35 100 36 145 4z m-765
-25 c42 -24 101 -94 111 -132 8 -31 -15 -77 -76 -152 -63 -79 -119 -107 -196
-101 -47 4 -60 10 -95 44 -46 44 -64 97 -54 158 9 53 48 106 120 162 49 38 64
44 104 44 29 0 61 -9 86 -23z m-684 -12 c83 -29 146 -116 136 -187 -9 -68
-166 -219 -243 -234 -23 -4 -52 0 -87 12 -45 17 -56 26 -79 69 -52 94 -26 200
74 308 43 45 47 47 100 47 30 0 75 -7 99 -15z m3839 -55 c117 -60 201 -211
171 -310 -14 -46 -92 -120 -127 -120 -31 0 -146 54 -185 87 -66 56 -85 145
-54 249 29 99 110 137 195 94z m-1709 -79 c90 -56 115 -115 79 -184 -50 -96
-123 -158 -208 -178 -88 -20 -184 46 -197 135 -11 70 6 113 67 173 88 87 179
106 259 54z m2407 -100 c57 -29 69 -49 76 -126 3 -38 13 -92 21 -118 22 -73
-7 -125 -104 -188 -78 -50 -141 -32 -199 57 -40 60 -56 115 -47 171 8 56 69
177 102 203 33 26 101 26 151 1z m590 -115 c69 -36 107 -129 100 -244 -3 -55
-8 -68 -31 -87 -35 -31 -128 -65 -176 -65 -33 0 -45 7 -78 43 -73 79 -78 142
-24 262 21 45 39 70 63 85 39 23 107 26 146 6z m1165 -71 c36 -17 73 -66 87
-113 21 -76 -49 -172 -152 -206 -48 -17 -62 -18 -96 -8 -80 24 -133 107 -118
186 7 38 62 110 105 138 33 22 131 24 174 3z m-622 -74 c73 -46 85 -68 93
-170 9 -115 -4 -148 -70 -187 -91 -54 -191 -28 -233 60 -39 79 -21 209 35 257
18 16 112 68 125 69 3 0 25 -13 50 -29z m-6539 -9 c15 -10 40 -34 56 -54 34
-43 41 -95 37 -280 -2 -107 -4 -121 -28 -156 -31 -47 -80 -72 -141 -72 -94 0
-141 39 -191 160 -25 59 -26 69 -16 115 6 27 15 75 21 105 15 75 53 136 108
171 54 34 113 38 154 11z m1947 -35 c68 -34 86 -65 86 -150 0 -62 -5 -81 -34
-137 -40 -77 -66 -109 -127 -160 -44 -37 -118 -65 -158 -62 -25 1 -83 58 -107
104 -25 49 -24 100 5 184 38 112 77 167 149 208 74 41 123 45 186 13z m-678
-33 c43 -29 67 -62 80 -107 7 -24 2 -44 -25 -106 -18 -42 -41 -99 -50 -128
-42 -127 -190 -172 -277 -85 -32 33 -37 44 -42 106 -5 56 -3 77 12 111 31 70
120 195 154 216 46 27 103 25 148 -7z m-634 -30 c83 -40 125 -131 97 -208 -9
-22 -20 -58 -26 -79 -9 -30 -24 -49 -71 -82 -71 -52 -104 -61 -163 -45 -47 13
-87 52 -137 133 l-27 45 27 73 c22 58 41 87 90 138 l62 64 48 -7 c26 -3 71
-18 100 -32z m1944 -54 c67 -70 72 -88 55 -185 -13 -78 -18 -89 -61 -138 -48
-54 -126 -107 -158 -107 -26 0 -96 38 -123 67 -21 23 -24 36 -24 107 0 68 4
90 28 141 55 114 105 154 196 155 45 0 53 -4 87 -40z m2321 -10 c47 -14 97
-55 113 -95 20 -50 1 -217 -33 -285 -30 -61 -97 -114 -158 -126 -30 -5 -40 -1
-80 32 -58 47 -74 85 -74 171 1 176 75 300 185 312 6 0 27 -4 47 -9z m491
-194 c35 -15 75 -54 102 -103 18 -31 18 -32 -14 -130 -18 -54 -39 -105 -48
-114 -39 -45 -157 -41 -219 6 -35 27 -74 98 -74 136 0 13 15 57 34 96 53 110
128 148 219 109z m572 -36 c29 0 155 -104 155 -128 0 -36 -62 -200 -83 -219
-12 -12 -47 -28 -78 -37 -50 -14 -62 -14 -104 -2 -51 16 -92 48 -106 83 -19
51 36 218 87 265 29 26 78 49 92 43 8 -3 24 -5 37 -5z m1256 -108 c30 -33 46
-103 35 -148 -7 -25 -48 -70 -93 -101 -33 -22 -146 -25 -197 -6 -58 22 -76 46
-76 101 0 67 33 128 89 164 44 28 51 29 130 26 79 -4 86 -6 112 -36z m-676 -2
c69 -47 85 -74 85 -140 0 -71 -20 -99 -95 -134 -62 -30 -94 -32 -138 -10 -100
51 -132 134 -84 224 46 87 152 115 232 60z m-6599 -326 c116 -70 137 -104 124
-205 -9 -78 -18 -97 -78 -168 -59 -69 -114 -95 -191 -89 -126 9 -181 72 -181
207 0 64 5 84 35 147 37 78 68 105 148 130 63 19 78 17 143 -22z m614 -14 c59
-63 65 -106 33 -218 -46 -165 -122 -254 -217 -256 -57 -1 -98 35 -122 107 -42
126 32 350 129 392 18 8 56 14 86 15 51 0 56 -3 91 -40z m580 29 c58 -17 130
-124 130 -192 0 -10 -19 -67 -42 -125 -61 -152 -125 -212 -227 -212 -39 0
-104 37 -128 72 -105 158 -38 392 127 448 64 23 89 24 140 9z m646 -14 c52
-31 79 -67 94 -128 18 -69 -9 -195 -57 -264 -84 -124 -149 -151 -246 -102 -58
30 -77 70 -77 161 0 122 56 243 136 290 18 11 34 26 34 34 0 14 32 32 59 33 8
1 33 -10 57 -24z m624 -18 c39 -19 48 -30 69 -82 22 -56 23 -66 14 -141 -16
-132 -99 -275 -184 -320 -91 -46 -255 39 -275 142 -4 20 -4 73 -2 118 7 112
35 175 101 223 132 100 175 109 277 60z m2506 -128 c63 -46 104 -119 103 -179
0 -19 -17 -80 -37 -134 -47 -125 -81 -158 -170 -163 -74 -5 -123 22 -175 97
-42 61 -54 133 -36 204 19 73 178 214 242 216 10 0 43 -18 73 -41z m535 5 c12
-10 25 -28 31 -39 5 -11 15 -31 23 -45 23 -39 19 -170 -7 -249 -25 -76 -51
-109 -116 -144 -73 -39 -105 -42 -158 -16 -58 27 -80 64 -89 144 -5 54 -2 77
24 159 35 112 57 148 120 188 39 25 53 29 98 25 33 -2 61 -11 74 -23z m1089
-40 c22 -9 49 -29 60 -44 26 -37 52 -163 40 -196 -6 -14 -10 -53 -10 -87 0
-85 -14 -106 -90 -145 -116 -60 -203 -33 -252 77 -31 67 -27 159 10 250 34 83
71 126 128 146 51 18 66 18 114 -1z m589 -14 c71 -52 82 -79 79 -195 -4 -130
-26 -179 -105 -232 -73 -48 -138 -55 -202 -21 -60 31 -81 73 -81 164 0 176 99
314 225 314 31 0 53 -8 84 -30z m-1174 0 c96 -24 122 -41 142 -87 19 -47 20
-131 1 -168 -9 -17 -18 -49 -21 -71 -5 -42 -57 -124 -108 -171 -38 -34 -97
-56 -136 -48 -45 8 -108 67 -134 124 -18 39 -20 61 -17 146 6 150 46 226 143
274 49 25 37 25 130 1z"/>
<path d="M1540 5257 c0 -39 61 -389 160 -918 l159 -854 330 -580 330 -580
1393 -602 c766 -332 1400 -603 1408 -603 8 0 653 136 1433 303 l1419 303 613
582 c337 320 630 602 651 625 32 36 101 201 485 1157 246 613 445 1117 443
1120 -3 2 -818 28 -1812 57 l-1807 52 -2602 0 -2603 1 0 -63z"/>
<path d="M10937 2383 c-3 -32 -4 -60 -1 -63 11 -10 44 43 44 69 0 25 -16 51
-31 51 -3 0 -9 -26 -12 -57z"/>
</g>
</svg>
